<?xml version="1.0" encoding="UTF-8" standalone="no"?>
<!-- Created with Inkscape (http://www.inkscape.org/) -->

<svg
   xmlns:dc="http://purl.org/dc/elements/1.1/"
   xmlns:cc="http://creativecommons.org/ns#"
   xmlns:rdf="http://www.w3.org/1999/02/22-rdf-syntax-ns#"
   xmlns:svg="http://www.w3.org/2000/svg"
   xmlns="http://www.w3.org/2000/svg"
   xmlns:sodipodi="http://sodipodi.sourceforge.net/DTD/sodipodi-0.dtd"
   xmlns:inkscape="http://www.inkscape.org/namespaces/inkscape"
   width="63.424404mm"
   height="63.424404mm"
   viewBox="0 0 63.424404 63.424404"
   version="1.1"
   id="svg8"
   inkscape:version="0.92.5 (2060ec1f9f, 2020-04-08)"
   sodipodi:docname="logo.svg">
  <defs
     id="defs2">
    <clipPath
       clipPathUnits="userSpaceOnUse"
       id="clipPath852">
      <path
         style="fill:none;stroke:#000000;stroke-width:0.26458332px;stroke-linecap:butt;stroke-linejoin:miter;stroke-opacity:1"
         d="m 49.136906,109.52381 c 0,0 -1.13393,39.30952 0,40.82143 1.133927,1.5119 56.318454,3.02381 56.318454,3.02381 l -5.669645,-43.84524 z"
         id="path854"
         inkscape:connector-curvature="0" />
    </clipPath>
  </defs>
  <sodipodi:namedview
     id="base"
     pagecolor="#ffffff"
     bordercolor="#666666"
     borderopacity="1.0"
     inkscape:pageopacity="0.0"
     inkscape:pageshadow="2"
     inkscape:zoom="0.49497475"
     inkscape:cx="81.809561"
     inkscape:cy="-14.183665"
     inkscape:document-units="mm"
     inkscape:current-layer="layer1"
     showgrid="false"
     showguides="true"
     inkscape:guide-bbox="true"
     inkscape:window-width="1366"
     inkscape:window-height="711"
     inkscape:window-x="0"
     inkscape:window-y="0"
     inkscape:window-maximized="1"
     fit-margin-top="0"
     fit-margin-left="0"
     fit-margin-right="0"
     fit-margin-bottom="0" />
  <metadata
     id="metadata5">
    <rdf:RDF>
      <cc:Work
         rdf:about="">
        <dc:format>image/svg+xml</dc:format>
        <dc:type
           rdf:resource="http://purl.org/dc/dcmitype/StillImage" />
        <dc:title></dc:title>
      </cc:Work>
    </rdf:RDF>
  </metadata>
  <g
     inkscape:label="Camada 1"
     inkscape:groupmode="layer"
     id="layer1"
     transform="translate(-66.183634,-128.08243)">
    <g
       id="g838">
      <circle
         style="fill:#d5d7d7;fill-opacity:1;stroke:none;stroke-width:1.26241195;stroke-miterlimit:4;stroke-dasharray:none;stroke-opacity:1"
         id="path943"
         cx="97.895836"
         cy="159.79463"
         r="31.712202" />
      <g
         transform="translate(23.512343,29.121422)"
         id="g876">
        <path
           style="fill:#108e08;fill-opacity:1;stroke:#ffffff;stroke-width:13.67433071;stroke-miterlimit:4;stroke-dasharray:none;stroke-dashoffset:0;stroke-opacity:1"
           d="m 282.8418,425.64258 a 70.583172,70.583172 0 0 0 -70.58203,70.58203 70.583172,70.583172 0 0 0 11.19921,38.14844 l -10.82226,33.57226 34.04883,-11.19726 a 70.583172,70.583172 0 0 0 36.15625,10.06054 70.583172,70.583172 0 0 0 70.58398,-70.58398 70.583172,70.583172 0 0 0 -70.58398,-70.58203 z"
           transform="scale(0.26458333)"
           id="path866"
           inkscape:connector-curvature="0" />
        <path
           style="fill:#ffffff;stroke:#ffffff;stroke-width:0.26458332px;stroke-linecap:butt;stroke-linejoin:miter;stroke-opacity:1"
           d="m 69.878347,122.70573 1.81901,3.80338 c 0.286494,0.59903 0.195021,1.19697 -0.14174,1.63003 -0.452005,0.58126 -1.055183,1.02581 -1.582774,1.58277 1.769215,3.26869 4.257946,5.57803 7.630392,6.70908 0.708706,-0.80192 1.417412,-1.66049 2.126118,-2.55134 0.163517,-0.13212 0.361705,-0.18623 0.614211,-0.11812 l 4.464844,2.17336 c 0.218985,2.27779 -0.628008,3.22312 -1.653646,3.94513 -1.506069,1.02259 -3.39886,1.08907 -4.984851,0.55955 -5.646044,-1.88506 -10.692705,-5.60902 -12.989556,-12.25369 -0.444346,-1.28547 -0.08036,-2.66489 0.634764,-3.90881 0.3073,-0.53453 0.623456,-1.30144 1.737254,-1.93771 0.563575,-0.32195 1.227733,-0.1851 1.80407,-0.0668 0.202213,0.0415 0.419855,0.21979 0.521904,0.43317 z"
           id="path872"
           inkscape:connector-curvature="0"
           sodipodi:nodetypes="sssccccccasssss" />
      </g>
      <g
         id="g955"
         transform="matrix(0.16043579,0,0,0.16043579,66.907137,137.68505)">
        <path
           sodipodi:nodetypes="cccszccczzzzz"
           inkscape:connector-curvature="0"
           id="path945"
           d="M 116.18699,93.07593 H 99.9432 v 11.75492 c 7.22406,2.77536 7.91227,9.55803 7.91227,12.00704 0,4.18196 2.16581,34.35706 37.51367,34.35706 35.34786,0 45.23347,-33.37109 46.16019,-36.82967 V 102.89855 C 164.38886,86.57124 139.52484,86.74979 116.18699,93.07593 Z m 29.18215,2.31825 c 23.49969,0 34.04189,13.52768 34.42135,21.96289 0.37946,8.4352 -10.02957,29.44176 -34.42135,29.44176 -24.39178,0 -32.26383,-19.70011 -31.01723,-31.96094 1.24661,-12.26083 7.51754,-19.44371 31.01723,-19.44371 z"
           style="color:#000000;font-style:normal;font-variant:normal;font-weight:normal;font-stretch:normal;font-size:medium;line-height:normal;font-family:sans-serif;font-variant-ligatures:normal;font-variant-position:normal;font-variant-caps:normal;font-variant-numeric:normal;font-variant-alternates:normal;font-feature-settings:normal;text-indent:0;text-align:start;text-decoration:none;text-decoration-line:none;text-decoration-style:solid;text-decoration-color:#000000;letter-spacing:normal;word-spacing:normal;text-transform:none;writing-mode:lr-tb;direction:ltr;text-orientation:mixed;dominant-baseline:auto;baseline-shift:baseline;text-anchor:start;white-space:normal;shape-padding:0;clip-rule:nonzero;display:inline;overflow:visible;visibility:visible;opacity:1;isolation:auto;mix-blend-mode:normal;color-interpolation:sRGB;color-interpolation-filters:linearRGB;solid-color:#000000;solid-opacity:1;vector-effect:none;fill:#feee37;fill-opacity:1;fill-rule:nonzero;stroke:none;stroke-width:7.01480293;stroke-linecap:butt;stroke-linejoin:miter;stroke-miterlimit:4;stroke-dasharray:none;stroke-dashoffset:0;stroke-opacity:1;color-rendering:auto;image-rendering:auto;shape-rendering:auto;text-rendering:auto;enable-background:accumulate" />
        <path
           style="color:#000000;font-style:normal;font-variant:normal;font-weight:normal;font-stretch:normal;font-size:medium;line-height:normal;font-family:sans-serif;font-variant-ligatures:normal;font-variant-position:normal;font-variant-caps:normal;font-variant-numeric:normal;font-variant-alternates:normal;font-feature-settings:normal;text-indent:0;text-align:start;text-decoration:none;text-decoration-line:none;text-decoration-style:solid;text-decoration-color:#000000;letter-spacing:normal;word-spacing:normal;text-transform:none;writing-mode:lr-tb;direction:ltr;text-orientation:mixed;dominant-baseline:auto;baseline-shift:baseline;text-anchor:start;white-space:normal;shape-padding:0;clip-rule:nonzero;display:inline;overflow:visible;visibility:visible;opacity:1;isolation:auto;mix-blend-mode:normal;color-interpolation:sRGB;color-interpolation-filters:linearRGB;solid-color:#000000;solid-opacity:1;vector-effect:none;fill:#0272eb;fill-opacity:1;fill-rule:nonzero;stroke:none;stroke-width:7.01480293;stroke-linecap:butt;stroke-linejoin:miter;stroke-miterlimit:4;stroke-dasharray:none;stroke-dashoffset:0;stroke-opacity:1;color-rendering:auto;image-rendering:auto;shape-rendering:auto;text-rendering:auto;enable-background:accumulate"
           d="m 266.87167,93.07593 h 16.24379 v 11.75492 c -7.22406,2.77536 -7.91227,9.55803 -7.91227,12.00704 0,4.18196 -2.16581,34.35706 -37.51367,34.35706 -35.34786,0 -45.23347,-33.37109 -46.16019,-36.82967 v -11.46673 c 27.14047,-16.32731 52.00449,-16.14876 75.34234,-9.82262 z m -29.18215,2.31825 c -23.49969,0 -34.04189,13.52768 -34.42135,21.96289 -0.37946,8.4352 10.02957,29.44176 34.42135,29.44176 24.39178,0 32.26383,-19.70011 31.01723,-31.96094 -1.24661,-12.26083 -7.51754,-19.44371 -31.01723,-19.44371 z"
           id="path951"
           inkscape:connector-curvature="0"
           sodipodi:nodetypes="cccszccczzzzz" />
      </g>
      <g
         id="g994"
         style="fill:#ffffff;stroke:#108e08;stroke-width:9.34953499;stroke-miterlimit:4;stroke-dasharray:none;stroke-opacity:1"
         transform="matrix(0.16043579,0,0,0.16043579,66.92563,132.78769)">
        <path
           id="rect957"
           d="m 150.58789,243.54102 c -0.36779,-0.001 -0.73962,0.005 -1.11328,0.0215 -6.15573,1.81921 -8.52964,13.14682 -8.28125,24.40234 -0.24839,11.25552 2.12552,22.58314 8.28125,24.40235 0.37366,0.0165 0.74549,0.0225 1.11328,0.0215 11.40147,-0.0421 20.04552,-8.35722 29.82617,-13.26172 -0.80491,-4.06857 -1.06819,-7.72931 -1.02539,-11.16211 -0.0428,-3.4328 0.22048,-7.09354 1.02539,-11.16211 -9.78065,-4.9045 -18.4247,-13.21964 -29.82617,-13.26171 z"
           style="fill:#ffffff;fill-opacity:1;stroke:#108e08;stroke-width:9.34953499;stroke-miterlimit:4;stroke-dasharray:none;stroke-opacity:1"
           inkscape:connector-curvature="0" />
        <path
           inkscape:connector-curvature="0"
           style="fill:#ffffff;fill-opacity:1;stroke:#108e08;stroke-width:9.34953499;stroke-miterlimit:4;stroke-dasharray:none;stroke-opacity:1"
           d="m 232.24023,243.54102 c 0.36779,-0.001 0.73962,0.005 1.11328,0.0215 6.15573,1.81921 8.52964,13.14682 8.28125,24.40234 0.24839,11.25552 -2.12552,22.58314 -8.28125,24.40235 -0.37366,0.0165 -0.74549,0.0225 -1.11328,0.0215 -11.40147,-0.0421 -20.04552,-8.35722 -29.82617,-13.26172 0.80491,-4.06857 1.06819,-7.72931 1.02539,-11.16211 0.0428,-3.4328 -0.22048,-7.09354 -1.02539,-11.16211 9.78065,-4.9045 18.4247,-13.21964 29.82617,-13.26171 z"
           id="path966" />
        <rect
           ry="5.8337026"
           rx="5.8337026"
           y="256.77759"
           x="182.36707"
           height="22.373156"
           width="17.898523"
           id="rect968"
           style="fill:#ffffff;fill-opacity:1;stroke:#108e08;stroke-width:9.34953499;stroke-miterlimit:4;stroke-dasharray:none;stroke-opacity:1" />
      </g>
      <path
         style="color:#000000;font-style:normal;font-variant:normal;font-weight:normal;font-stretch:normal;font-size:medium;line-height:normal;font-family:sans-serif;font-variant-ligatures:normal;font-variant-position:normal;font-variant-caps:normal;font-variant-numeric:normal;font-variant-alternates:normal;font-feature-settings:normal;text-indent:0;text-align:start;text-decoration:none;text-decoration-line:none;text-decoration-style:solid;text-decoration-color:#000000;letter-spacing:normal;word-spacing:normal;text-transform:none;writing-mode:lr-tb;direction:ltr;text-orientation:mixed;dominant-baseline:auto;baseline-shift:baseline;text-anchor:start;white-space:normal;shape-padding:0;clip-rule:nonzero;display:inline;overflow:visible;visibility:visible;opacity:1;isolation:auto;mix-blend-mode:normal;color-interpolation:sRGB;color-interpolation-filters:linearRGB;solid-color:#000000;solid-opacity:1;vector-effect:none;fill:#ffffff;fill-opacity:1;fill-rule:nonzero;stroke:#108e08;stroke-width:1.5;stroke-linecap:butt;stroke-linejoin:miter;stroke-miterlimit:4;stroke-dasharray:none;stroke-dashoffset:0;stroke-opacity:1;color-rendering:auto;image-rendering:auto;shape-rendering:auto;text-rendering:auto;enable-background:accumulate"
         d="m 91.384402,139.96648 c -2.615087,0.36221 -4.989758,1.26465 -7.010919,2.19526 -2.193327,1.00988 0.901454,5.26124 2.878125,5.97044 12.867412,-2.70568 16.093782,-0.19806 24.584592,2.16024 3.32232,-3.27165 1.62943,-5.19473 1.62943,-5.19473 -1.87022,-1.53103 -2.34147,-1.6852 -5.33162,-2.94306 -1.68031,-0.70685 -1.58427,-3.0002 -5.38402,-3.9983 -3.799752,-0.9981 -5.557305,-0.96702 -7.860194,-0.35005 -1.278701,0.34258 -2.644157,2.04091 -3.505394,2.1602 z"
         id="path996"
         inkscape:connector-curvature="0"
         sodipodi:nodetypes="sscccszss" />
    </g>
  </g>
</svg>
